<?xml version="1.0" encoding="utf-8"?>
<!-- Generator: Adobe Illustrator 25.2.3, SVG Export Plug-In . SVG Version: 6.00 Build 0)  -->
<svg version="1.1" id="Calque_1" xmlns="http://www.w3.org/2000/svg" xmlns:xlink="http://www.w3.org/1999/xlink" x="0px" y="0px"
	 viewBox="0 0 304.4 253.2" style="enable-background:new 0 0 304.4 253.2;" xml:space="preserve">
<style type="text/css">
	.st0{fill:url(#SVGID_1_);}
	.st1{fill:url(#SVGID_2_);}
	.st2{fill:#7ADEC9;}
</style>
<g>
	<g>
		
			<linearGradient id="SVGID_1_" gradientUnits="userSpaceOnUse" x1="207" y1="201.5" x2="97.9" y2="201.5" gradientTransform="matrix(1 0 0 -1 0 256)">
			<stop  offset="0" style="stop-color:#FFAA30"/>
			<stop  offset="7.625628e-02" style="stop-color:#FF9D26"/>
			<stop  offset="0.2352" style="stop-color:#FE8915"/>
			<stop  offset="0.4161" style="stop-color:#FE7B09"/>
			<stop  offset="0.6353" style="stop-color:#FE7302"/>
			<stop  offset="1" style="stop-color:#FE7000"/>
		</linearGradient>
		<path class="st0" d="M152.4,109c-30.1,0-54.5-24.5-54.5-54.5S122.4,0,152.4,0S207,24.5,207,54.5S182.5,109,152.4,109z M152.4,15
			c-21.8,0-39.5,17.7-39.5,39.5S130.6,94,152.4,94s39.5-17.7,39.5-39.5S174.2,15,152.4,15z"/>
		
			<linearGradient id="SVGID_2_" gradientUnits="userSpaceOnUse" x1="258.2" y1="62.3" x2="47" y2="62.3" gradientTransform="matrix(1 0 0 -1 0 256)">
			<stop  offset="0" style="stop-color:#FFAA30"/>
			<stop  offset="7.625628e-02" style="stop-color:#FF9D26"/>
			<stop  offset="0.2352" style="stop-color:#FE8915"/>
			<stop  offset="0.4161" style="stop-color:#FE7B09"/>
			<stop  offset="0.6353" style="stop-color:#FE7302"/>
			<stop  offset="1" style="stop-color:#FE7000"/>
		</linearGradient>
		<path class="st1" d="M258.2,253.2h-15v-13.4c0-50-40.6-90.6-90.6-90.6S62,189.9,62,239.8v13.4H47v-13.4
			c0-58.2,47.4-105.6,105.6-105.6s105.6,47.4,105.6,105.6V253.2z"/>
	</g>
	<path class="st2" d="M257.4,112.6C272.2,102.8,282,86.1,282,67c0-30.1-24.5-54.5-54.5-54.5v15c21.8,0,39.5,17.7,39.5,39.5
		s-17.7,39.5-39.5,39.5v15c34.1,0,61.9,27.8,61.9,61.9h15C304.4,151.7,285,124.3,257.4,112.6z"/>
	<path class="st2" d="M76.9,27.5v-15C46.8,12.5,22.4,37,22.4,67c0,19,9.8,35.8,24.6,45.6c-27.6,11.7-47,39-47,70.9h15
		c0-34.1,27.8-61.9,61.9-61.9v-15c-21.8,0-39.5-17.7-39.5-39.5S55.1,27.5,76.9,27.5z"/>
</g>
</svg>
