<?xml version="1.0" encoding="utf-8"?>
<!-- Generator: Adobe Illustrator 25.2.3, SVG Export Plug-In . SVG Version: 6.00 Build 0)  -->
<svg version="1.1" id="Calque_1" xmlns="http://www.w3.org/2000/svg" xmlns:xlink="http://www.w3.org/1999/xlink" x="0px" y="0px"
	 viewBox="0 0 292.1 281" style="enable-background:new 0 0 292.1 281;" xml:space="preserve">
<style type="text/css">
	.st0{fill:#7ADEC9;}
	.st1{fill:url(#SVGID_1_);}
</style>
<polygon class="st0" points="146.7,215.6 127.4,207.5 178.9,84.9 119,84.9 119,101.8 97.9,101.8 97.9,63.8 201.2,63.8 201.2,85.8 
	"/>
<linearGradient id="SVGID_1_" gradientUnits="userSpaceOnUse" x1="292.1436" y1="140.5" x2="9.094947e-13" y2="140.5">
	<stop  offset="0" style="stop-color:#FFAA30"/>
	<stop  offset="7.625628e-02" style="stop-color:#FF9D26"/>
	<stop  offset="0.2352" style="stop-color:#FE8915"/>
	<stop  offset="0.4161" style="stop-color:#FE7B09"/>
	<stop  offset="0.6353" style="stop-color:#FE7302"/>
	<stop  offset="1" style="stop-color:#FE7000"/>
</linearGradient>
<polygon class="st1" points="146.1,271.1 142.2,262.9 247.6,212.9 272.6,104.8 202.4,18.1 89.8,18.1 19.6,104.8 44.6,212.9 
	150,262.9 146.1,271.1 142.2,262.9 146.1,271.1 142.2,279.2 28.9,225.3 0,100.3 81,0 211.1,0 292.1,100.3 263.2,225.3 146.1,281 
	142.2,279.2 "/>
</svg>
